<?xml version="1.0" encoding="UTF-8" standalone="no"?>
<!-- Created with Inkscape (http://www.inkscape.org/) -->

<svg
   xmlns:dc="http://purl.org/dc/elements/1.1/"
   xmlns:cc="http://creativecommons.org/ns#"
   xmlns:rdf="http://www.w3.org/1999/02/22-rdf-syntax-ns#"
   xmlns:svg="http://www.w3.org/2000/svg"
   xmlns="http://www.w3.org/2000/svg"
   xmlns:sodipodi="http://sodipodi.sourceforge.net/DTD/sodipodi-0.dtd"
   xmlns:inkscape="http://www.inkscape.org/namespaces/inkscape"
   version="1.1"
   id="svg4485"
   xml:space="preserve"
   width="266.19205"
   height="334.99411"
   viewBox="0 0 266.19204 334.99411"
   sodipodi:docname="logo.svg"
   inkscape:version="0.92.1 r15371"><metadata
     id="metadata4491"><rdf:RDF><cc:Work
         rdf:about=""><dc:format>image/svg+xml</dc:format><dc:type
           rdf:resource="http://purl.org/dc/dcmitype/StillImage" /><dc:title></dc:title></cc:Work></rdf:RDF></metadata><defs
     id="defs4489"><clipPath
       clipPathUnits="userSpaceOnUse"
       id="clipPath4501"><path
         d="M 0,560.001 H 288 V 0 H 0 Z"
         id="path4499"
         inkscape:connector-curvature="0" /></clipPath><clipPath
       clipPathUnits="userSpaceOnUse"
       id="clipPath4645"><path
         d="m 164.098,130.409 h 79.095 V 97.1254 h -79.095 z"
         id="path4643"
         inkscape:connector-curvature="0" /></clipPath><clipPath
       clipPathUnits="userSpaceOnUse"
       id="clipPath4649"><path
         d="m 164.098,130.409 h 79.095 V 97.1254 h -79.095 z"
         id="path4647"
         inkscape:connector-curvature="0" /></clipPath><clipPath
       clipPathUnits="userSpaceOnUse"
       id="clipPath4993"><path
         d="m 69.315,127.835 h 148.46 V 79.4355 H 69.315 Z"
         id="path4991"
         inkscape:connector-curvature="0" /></clipPath><clipPath
       clipPathUnits="userSpaceOnUse"
       id="clipPath4997"><path
         d="m 69.315,127.835 h 148.46 V 79.4355 H 69.315 Z"
         id="path4995"
         inkscape:connector-curvature="0" /></clipPath><clipPath
       clipPathUnits="userSpaceOnUse"
       id="clipPath5341"><path
         d="M 50.7297,127.385 H 186.997 V 81.8795 H 50.7297 Z"
         id="path5339"
         inkscape:connector-curvature="0" /></clipPath><clipPath
       clipPathUnits="userSpaceOnUse"
       id="clipPath5345"><path
         d="M 50.7297,127.385 H 186.997 V 81.8795 H 50.7297 Z"
         id="path5343"
         inkscape:connector-curvature="0" /></clipPath></defs><sodipodi:namedview
     pagecolor="#ffffff"
     bordercolor="#666666"
     borderopacity="1"
     objecttolerance="10"
     gridtolerance="10"
     guidetolerance="10"
     inkscape:pageopacity="0"
     inkscape:pageshadow="2"
     inkscape:window-width="1304"
     inkscape:window-height="745"
     id="namedview4487"
     showgrid="false"
     fit-margin-top="20"
     fit-margin-left="20"
     fit-margin-right="20"
     fit-margin-bottom="20"
     inkscape:zoom="0.77142716"
     inkscape:cx="128.78467"
     inkscape:cy="100.15955"
     inkscape:window-x="58"
     inkscape:window-y="-4"
     inkscape:window-maximized="1"
     inkscape:current-layer="g4495" /><g
     id="g4493"
     inkscape:groupmode="layer"
     inkscape:label="life_ship"
     transform="matrix(1.3333333,0,0,-1.3333333,-63.215333,556.3166)"><g
       id="g4495"
       transform="translate(26.250049,-10.694464)"><g
         id="g4497"
         clip-path="url(#clipPath4501)"><g
           id="g5751"
           transform="translate(-28.194497,73.889026)"><g
             transform="translate(77.9097,127.72)"
             id="g4503"><path
               inkscape:connector-curvature="0"
               id="path4505"
               style="fill:#000000;fill-opacity:1;fill-rule:nonzero;stroke:none"
               d="M 0,0 C 0,0 -2.401,-12.007 69.64,-9.605 141.682,-7.204 129.675,4.804 129.675,4.804 129.675,4.804 24.014,-19.211 0,0" /></g><g
             transform="translate(77.9097,127.72)"
             id="g4507"><path
               inkscape:connector-curvature="0"
               id="path4509"
               style="fill:#000000;fill-opacity:1;fill-rule:nonzero;stroke:none"
               d="M 0,0 C 0,0 -7.205,12.008 0,19.212 7.204,26.416 -4.803,9.606 0,0" /></g><g
             transform="translate(207.585,149.3333)"
             id="g4511"><path
               inkscape:connector-curvature="0"
               id="path4513"
               style="fill:#000000;fill-opacity:1;fill-rule:nonzero;stroke:none"
               d="M 0,0 C 0,0 -144.084,7.204 -129.675,-2.401 -115.267,-12.007 -86.45,4.803 0,0" /></g><g
             transform="translate(121.1348,151.7347)"
             id="g4515"><path
               inkscape:connector-curvature="0"
               id="path4517"
               style="fill:#000000;fill-opacity:1;fill-rule:nonzero;stroke:none"
               d="m 0,0 -31.218,153.689 c 0,0 36.021,-163.294 48.028,-156.09" /></g><g
             transform="translate(151.1523,150.9339)"
             id="g4519"><path
               inkscape:connector-curvature="0"
               id="path4521"
               style="fill:#000000;fill-opacity:1;fill-rule:nonzero;stroke:none"
               d="m 0,0 -46.828,188.109 c 0,0 52.03,-190.51 58.434,-188.91" /></g><g
             transform="translate(75.5083,240.5862)"
             id="g4523"><path
               inkscape:connector-curvature="0"
               id="path4525"
               style="fill:#000000;fill-opacity:1;fill-rule:nonzero;stroke:none"
               d="M 0,0 C 0,0 -19.211,-84.049 -7.205,-86.45" /></g><g
             transform="translate(70.7051,154.136)"
             id="g4527"><path
               inkscape:connector-curvature="0"
               id="path4529"
               style="fill:#000000;fill-opacity:1;fill-rule:nonzero;stroke:none"
               d="M 0,0 C 0,0 19.211,9.605 45.626,2.401" /></g><g
             transform="translate(113.9302,199.762)"
             id="g4531"><path
               inkscape:connector-curvature="0"
               id="path4533"
               style="fill:#000000;fill-opacity:1;fill-rule:nonzero;stroke:none"
               d="M 0,0 C 0,0 0,-7.204 -38.422,43.226" /></g><g
             transform="translate(73.1064,257.3958)"
             id="g4535"><path
               inkscape:connector-curvature="0"
               id="path4537"
               style="fill:#000000;fill-opacity:1;fill-rule:nonzero;stroke:none"
               d="M 0,0 C 60.035,2.401 0,-2.401 0,-2.401" /></g><g
             transform="translate(80.311,276.6067)"
             id="g4539"><path
               inkscape:connector-curvature="0"
               id="path4541"
               style="fill:#000000;fill-opacity:1;fill-rule:nonzero;stroke:none"
               d="M 0,0 C 86.45,7.204 2.401,-2.401 2.401,-2.401" /></g><g
             transform="translate(185.9717,206.9661)"
             id="g4543"><path
               inkscape:connector-curvature="0"
               id="path4545"
               style="fill:#000000;fill-opacity:1;fill-rule:nonzero;stroke:none"
               d="M 0,0 C 0,0 -16.81,-14.408 -7.204,-40.823 2.401,-67.238 -28.816,-31.218 0,0" /></g><g
             transform="translate(159.5566,281.4095)"
             id="g4547"><path
               inkscape:connector-curvature="0"
               id="path4549"
               style="fill:#000000;fill-opacity:1;fill-rule:nonzero;stroke:none"
               d="M 0,0 C 0,0 -16.81,-2.401 4.803,-38.422 26.415,-74.443 33.62,-76.845 33.62,-76.845 33.62,-76.845 -24.014,-2.401 0,0" /></g><g
             transform="translate(142.7471,204.5647)"
             id="g4551"><path
               inkscape:connector-curvature="0"
               id="path4553"
               style="fill:#000000;fill-opacity:1;fill-rule:nonzero;stroke:none"
               d="M 0,0 C 0,0 45.626,-3.201 46.827,2.001" /></g><g
             transform="translate(190.7754,264.5999)"
             id="g4555"><path
               inkscape:connector-curvature="0"
               id="path4557"
               style="fill:#000000;fill-opacity:1;fill-rule:nonzero;stroke:none"
               d="M 0,0 C 0,0 -7.205,-19.211 7.204,-40.823 L 21.612,-62.437 C 21.612,-62.437 -2.402,-28.816 0,0" /></g><g
             transform="translate(159.5566,267.0013)"
             id="g4559"><path
               inkscape:connector-curvature="0"
               id="path4561"
               style="fill:#000000;fill-opacity:1;fill-rule:nonzero;stroke:none"
               d="M 0,0 H 31.219 C 31.219,0 -4.803,-4.803 0,0" /></g><g
             transform="translate(154.7539,283.8108)"
             id="g4563"><path
               inkscape:connector-curvature="0"
               id="path4565"
               style="fill:#000000;fill-opacity:1;fill-rule:nonzero;stroke:none"
               d="M 0,0 C -7.204,-7.204 -31.218,-4.803 -31.218,-4.803" /></g><g
             transform="translate(137.9443,322.2332)"
             id="g4567"><path
               inkscape:connector-curvature="0"
               id="path4569"
               style="fill:#000000;fill-opacity:1;fill-rule:nonzero;stroke:none"
               d="M 0,0 C 0,0 4.803,-43.225 9.605,-38.422" /></g><g
             transform="translate(85.1138,274.2054)"
             id="g4571"><path
               inkscape:connector-curvature="0"
               id="path4573"
               style="fill:#000000;fill-opacity:1;fill-rule:nonzero;stroke:none"
               d="M 0,0 C -2.401,-16.81 0,-16.81 0,-16.81" /></g><g
             transform="translate(135.543,305.4236)"
             id="g4575"><path
               inkscape:connector-curvature="0"
               id="path4577"
               style="fill:#000000;fill-opacity:1;fill-rule:nonzero;stroke:none"
               d="M 0,0 C 2.401,-4.803 -43.225,-4.803 -43.225,-4.803" /></g><g
             transform="translate(123.5361,288.6136)"
             id="g4579"><path
               inkscape:connector-curvature="0"
               id="path4581"
               style="fill:#000000;fill-opacity:1;fill-rule:nonzero;stroke:none"
               d="M 0,0 C 0,0 45.626,0 45.626,4.803" /></g><g
             transform="translate(145.1484,223.7767)"
             id="g4583"><path
               inkscape:connector-curvature="0"
               id="path4585"
               style="fill:#000000;fill-opacity:1;fill-rule:nonzero;stroke:none"
               d="m 0,0 c 0,0 21.612,2.401 33.619,-7.205 12.008,-9.606 7.204,-7.204 7.204,-7.204 C 40.823,-14.409 28.816,0 0,0" /></g><g
             transform="translate(209.9863,144.5306)"
             id="g4587"><path
               inkscape:connector-curvature="0"
               id="path4589"
               style="fill:#000000;fill-opacity:1;fill-rule:nonzero;stroke:none"
               d="m 0,0 c 0,0 3.602,-18.011 -9.006,-19.812 -12.607,-1.801 -10.205,0.6 -10.205,0.6 0,0 14.408,-7.204 19.211,19.212" /></g><g
             transform="translate(234,194.9593)"
             id="g4591"><path
               inkscape:connector-curvature="0"
               id="path4593"
               style="fill:#000000;fill-opacity:1;fill-rule:nonzero;stroke:none"
               d="m 0,0 -28.816,-28.816 c 0,0 4.802,0 2.401,-4.803" /></g><g
             transform="translate(104.3247,259.7971)"
             id="g4595"><path
               inkscape:connector-curvature="0"
               id="path4597"
               style="fill:#000000;fill-opacity:1;fill-rule:nonzero;stroke:none"
               d="M 0,0 C 0,0 26.416,0 26.416,2.401" /></g><g
             transform="translate(152.3525,216.5716)"
             id="g4599"><path
               inkscape:connector-curvature="0"
               id="path4601"
               style="fill:#000000;fill-opacity:1;fill-rule:nonzero;stroke:none"
               d="m 0,0 c 0,0 -12.007,7.205 -19.211,28.817 -7.204,21.613 -2.401,16.81 -2.401,16.81 0,0 0,-21.612 21.612,-45.627" /></g><g
             transform="translate(116.3315,223.7767)"
             id="g4603"><path
               inkscape:connector-curvature="0"
               id="path4605"
               style="fill:#000000;fill-opacity:1;fill-rule:nonzero;stroke:none"
               d="M 0,0 C 0,0 31.218,-4.804 33.62,-7.205" /></g><g
             transform="translate(140.3457,122.9173)"
             id="g4607"><path
               inkscape:connector-curvature="0"
               id="path4609"
               style="fill:#000000;fill-opacity:1;fill-rule:nonzero;stroke:none"
               d="m 0,0 c 0,0 -21.613,2.401 -24.014,9.606 -2.148,6.444 -5.403,13.508 -5.403,13.508 0,0 5.403,-20.713 29.417,-23.114" /></g><g
             transform="translate(80.311,127.72)"
             id="g4611"><path
               inkscape:connector-curvature="0"
               id="path4613"
               style="fill:#000000;fill-opacity:1;fill-rule:nonzero;stroke:none"
               d="M 0,0 C 0,0 28.816,9.606 36.021,4.804" /></g><g
             transform="translate(154.7539,168.5442)"
             id="g4615"><path
               inkscape:connector-curvature="0"
               id="path4617"
               style="fill:#000000;fill-opacity:1;fill-rule:nonzero;stroke:none"
               d="M 0,0 C 0,0 19.211,-4.803 21.612,-9.605" /></g><g
             transform="translate(214.7891,202.1634)"
             id="g4619"><path
               inkscape:connector-curvature="0"
               id="path4621"
               style="fill:#000000;fill-opacity:1;fill-rule:nonzero;stroke:none"
               d="m 0,0 c 0,0 -16.81,-14.408 -12.007,-33.619 4.803,-19.211 7.204,-19.211 7.204,-19.211 0,0 -16.809,31.218 4.803,52.83" /></g><g
             transform="translate(205.1836,154.136)"
             id="g4623"><path
               inkscape:connector-curvature="0"
               id="path4625"
               style="fill:#000000;fill-opacity:1;fill-rule:nonzero;stroke:none"
               d="M 0,0 C 0,0 -14.408,12.007 -16.811,9.605" /></g><g
             transform="translate(224.3945,204.5647)"
             id="g4627"><path
               inkscape:connector-curvature="0"
               id="path4629"
               style="fill:#000000;fill-opacity:1;fill-rule:nonzero;stroke:none"
               d="m 0,0 -41.725,-1.801 c 0,0 3.302,-3.002 0.901,-3.002" /></g><g
             transform="translate(101.9233,226.178)"
             id="g4631"><path
               inkscape:connector-curvature="0"
               id="path4633"
               style="fill:#000000;fill-opacity:1;fill-rule:nonzero;stroke:none"
               d="M 0,0 C 0,0 -16.81,1.2 -18.01,4.202" /></g><g
             transform="translate(75.5083,254.9944)"
             id="g4635"><path
               inkscape:connector-curvature="0"
               id="path4637"
               style="fill:#000000;fill-opacity:1;fill-rule:nonzero;stroke:none"
               d="M 0,0 C 0,0 -2.402,-7.204 0,-9.605" /></g></g></g></g></g></svg>